<svg id="BG" xmlns="http://www.w3.org/2000/svg" viewBox="0 0 1440 120"><defs><style>.cls-1{fill:#5ab63e;}.cls-2{fill:#fff;}.cls-3{fill:#ccc;}.cls-4{isolation:isolate;}.cls-5{fill:#f9e23a;}.cls-6{fill:#92b752;}.cls-7{fill:none;stroke:#f2f2f2;stroke-miterlimit:10;stroke-width:0.05px;}</style></defs><g id="Component_32_3" data-name="Component 32 3"><rect id="Rectangle_53" data-name="Rectangle 53" class="cls-1" x="-0.49" y="0.37" width="1440" height="120"/><g id="Group_111" data-name="Group 111"><g id="Group_110" data-name="Group 110"><path id="Path_216" data-name="Path 216" class="cls-2" d="M137.07,56c2.44,1.26,4.89,2.5,7.3,3.8.43.23,1,.82,1,1.11a7,7,0,0,1-1.1,2.16c-.06.09-.69-.08-1-.27-1.6-1.05-3.19-2.12-4.74-3.25a1,1,0,0,0-1.46,0l-.05.06c-1.75,1.46-3.59,2.83-5.31,4.33a2.16,2.16,0,0,1-2.57.56c-.48-.22-1-.42-1.47-.62a9.32,9.32,0,0,1,1.06-1.29c2.64-2.22,5.31-4.42,8-6.62Z"/><path id="Path_217" data-name="Path 217" class="cls-2" d="M71.85,63.62v-5c0-1.29.2-1.49,1.51-1.5.56,0,1.12,0,1.67,0,.86,0,1.15.38,1.14,1.19,0,1.48,0,3,0,4.44,0,.7.23.9.91.89,1.7,0,3.4,0,5.11,0,1.09,0,1.42.34,1.42,1.45,0,2.86,0,5.73,0,8.6a1.65,1.65,0,0,1-.87,1.6c-.72.42-1.41.89-2.14,1.3-1,.56-1.53.24-1.54-.9,0-2.83,0-5.67,0-8.51,0-1.2,0-1.22-1.27-1.23-.21,0-.43,0-.65,0-.8-.09-1,.31-1,1,0,1.66,0,3.33,0,5a2.24,2.24,0,0,1-1.23,2.2c-.59.33-1.15.73-1.73,1.08-.82.49-1.32.2-1.36-.82s0-2.22,0-3.33c0-1.45,0-2.9,0-4.35,0-.61-.23-.79-.81-.82-2.1-.1-2.1-.12-2.1,2V82.18c0,1.22,0,1.23,1.25,1.23H82.08c1.17,0,1.67.63,1.27,1.73a1.36,1.36,0,0,1-1,.71c-5.51,0-11,0-16.53,0-.93,0-1.06-.62-1.06-1.38q0-8.52,0-17c0-1.51,0-1.53-1.53-1.51-2.7,0-2.25-.29-2.27,2.24,0,2.3,0,4.61,0,7a7.23,7.23,0,0,0,.78-.23c.79-.32,1.25.07,1.55.73a1,1,0,0,1-.41,1.38l-.15.07c-2.09,1.14-4.17,2.31-6.25,3.45-.91.5-1.39.35-1.86-.45s-.05-1.34.66-1.59c1.41-.5,1.71-1.45,1.66-2.85-.11-2.84,0-5.68,0-8.51,0-1.28,0-1.27-1.29-1.3-.75,0-1.56,0-1.6-1.06,0-.83.37-1.21,1.33-1.26,1.56-.07,1.55-.07,1.56-1.63,0-3-.33-2.68,2.76-2.69,1.15,0,1.28.15,1.29,1.28,0,.74,0,1.48,0,2.22,0,.57.16.86.79.83a20.74,20.74,0,0,1,2.23,0c.63,0,.8-.26.8-.83,0-1.51,0-3,0-4.53,0-.83.33-1.19,1.16-1.15q1,0,2,0c.8,0,1.11.34,1.1,1.11,0,1.48,0,3,0,4.45,0,.7.21,1,1,1C70.49,63.58,71.08,63.62,71.85,63.62Z"/><path id="Path_218" data-name="Path 218" class="cls-2" d="M98.13,64.22c-1.46,0-2.88,0-4.29,0a1.27,1.27,0,0,1-1.4-1.08,1.21,1.21,0,0,1,.79-1.52,1.27,1.27,0,0,1,.51,0c2.63,0,5.26,0,7.89,0,.86,0,1.17-.28,1.13-1.11s0-1.6,0-2.4.29-1,1-1c2.52,0,2.57,0,3.1,2.47.43,2,.43,2,2.51,2h7.43c1.36,0,1.68.24,1.69,1.25s-.38,1.4-1.68,1.4c-4.48,0-9,0-13.45,0-.8,0-1.1.27-1.22,1s-.34,1.55-.55,2.5h13.15c1.44,0,1.7.26,1.7,1.73,0,3.64,0,7.28,0,10.92a1.64,1.64,0,0,1-.83,1.6c-2.08,1.28-4.12,2.62-6.18,3.93-1,.6-1.5.54-2-.2s-.47-1.37.54-2,2.36-1.48,3.48-2.3a1.6,1.6,0,0,0,.6-1.11c0-3.08,0-6.16,0-9.24,0-.68-.24-.94-.91-.94q-4.7,0-9.37,0c-.65,0-.89.26-1,.89C100,74.3,99.22,77.64,98.42,81c-.36,1.56-.5,1.58-2.06,1.43-1.94-.18-2.34-.34-1.78-2.62,1.23-5,2.31-9.94,3.45-14.91A6.57,6.57,0,0,0,98.13,64.22Z"/><path id="Path_219" data-name="Path 219" class="cls-2" d="M179,85.88H167.69c-1.07,0-1.57-.57-1.35-1.47.16-.67.62-.84,1.25-.83,2.81,0,5.63,0,8.44,0,.88,0,1.2-.25,1.18-1.15q-.08-3.06,0-6.1c0-.93-.34-1.16-1.2-1.15-2.16,0-4.33,0-6.5,0-1.12,0-1.39-.24-1.4-1.12s.6-1.06,1.36-1c2.23,0,4.46,0,6.68,0,.75,0,1.06-.22,1-1,0-1.67,0-3.33,0-5,0-.84-.26-1.14-1.11-1.13-2.6,0-5.2,0-7.79,0-1.3,0-1.52-.27-1.33-1.53s.36-2.5.59-3.73c.06-.3.31-.77.51-.79a20.62,20.62,0,0,1,2.94-.07c.12,0,.3.43.31.67.05.76,0,1.54,0,2.31,0,.56.15.85.78.84,1.43,0,2.85,0,4.27,0,.63,0,.81-.27.8-.83,0-1.39,0-2.78,0-4.17,0-.83.34-1.15,1.17-1.13,2.92,0,2.64-.31,2.65,2.61,0,.84,0,1.67,0,2.5s.3,1,1.09,1c2.56,0,5.13,0,7.7,0,.93,0,1.22.34,1.26,1.2S190.57,66,189.8,66c-2.51,0-5,0-7.52,0-1.29,0-1.3,0-1.3,1.27,0,1.6,0,3.21,0,4.81,0,.76.24,1,1,1,2.17,0,4.33,0,6.5,0,1,0,1.26.23,1.28,1.12s-.51,1.06-1.26,1c-2.13,0-4.26,0-6.4,0-.81,0-1.15.23-1.13,1.11q.09,3.09,0,6.2c0,.88.33,1.1,1.15,1.08,2.72,0,5.44,0,8.16,0,1.05,0,1.44.31,1.45,1.12s-.42,1.18-1.5,1.18Z"/><path id="Path_220" data-name="Path 220" class="cls-2" d="M131,79.12c-1.57.31-2.42-.7-3.29-1.51-.21-.19-.1-1,.1-1.3.62-1,1.41-2,2-3a3.88,3.88,0,0,0,.56-1.78c.08-1.57.06-3.14,0-4.72,0-.86.37-1.15,1.16-1.15h10.77c.78,0,1.17.31,1.16,1.17,0,2.43,0,4.87,0,7.3,0,.92-.4,1.17-1.23,1.17-2.69,0-5.38,0-8.07,0a1.1,1.1,0,0,0-1.25.92.41.41,0,0,0,0,.11c.42,0,.78,0,1.14,0h8.16c1.1,0,1.42.33,1.42,1.44q0,3.38,0,6.75c0,1-.26,1.3-1.32,1.3h-10c-1.05,0-1.32-.27-1.32-1.31C131,82.78,131,81,131,79.12Zm8.71-.09c-1.52,0-2.87,0-4.23,0a.77.77,0,0,0-.51.55c-.05,1.13-.06,2.28,0,3.41a.85.85,0,0,0,.6.56c1.18.06,2.35.05,3.52,0,.22,0,.59-.3.59-.47.06-1.32,0-2.63,0-4.07Zm-2.83-6h0c.62,0,1.24,0,1.85,0s.82-.29.83-.9-.24-.87-.87-.85c-1.11,0-2.22,0-3.33,0-.64,0-1,.08-1,.89s.46.87,1.07.86,1,0,1.48,0Zm-2.39-3.42c1.5,0,3,0,4.56,0,.18,0,.4-.55.47-.87.11-.47-.11-.75-.64-.74-1.08,0-2.16,0-3.24,0-1.37,0-1.42.06-1.15,1.64Z"/><path id="Path_221" data-name="Path 221" class="cls-2" d="M155.59,70.59c0,3.39,0,6.78,0,10.17a1.41,1.41,0,0,1-.73,1.36c-2.05,1.27-4.06,2.58-6.09,3.88a1.06,1.06,0,0,1-1.5,0,1,1,0,0,1-.17-.24,1,1,0,0,1,0-1.37,1.07,1.07,0,0,1,.28-.19c1.09-.71,2.15-1.45,3.27-2.11a1.79,1.79,0,0,0,1-1.77c0-6.47,0-12.94,0-19.42,0-1.39.13-1.52,1.54-1.52,2.63,0,2.41-.25,2.41,2.36Z"/><path id="Path_222" data-name="Path 222" class="cls-2" d="M146.25,71.88c0-.92,0-1.85,0-2.77s.4-1.24,1.24-1.23c.31,0,.62,0,.93,0a1,1,0,0,1,1,.89.43.43,0,0,1,0,.16,36.8,36.8,0,0,1-.05,4.33c-.06.56-.7,1.07-1.12,1.56a3.35,3.35,0,0,1-.74.56c-.73.48-1.24.23-1.27-.65S146.25,72.83,146.25,71.88Z"/><path id="Path_223" data-name="Path 223" class="cls-2" d="M137.51,64.21c-.61,0-1.23,0-1.84,0a1.08,1.08,0,0,1-1.13-1V63a1.05,1.05,0,0,1,.87-1.2h.22q1.89-.08,3.78,0c.76,0,1,.54,1,1.26a1,1,0,0,1-.89,1.13h-.16C138.75,64.24,138.13,64.21,137.51,64.21Z"/></g><path id="Path_224" data-name="Path 224" class="cls-2" d="M46.63,94.26c-.5-3.6-5.87-9.58-9.74-6.13-2.47,2.2,1.68,5.42,2.44.85.48-2.87-.56-6-.62-8.85-.08-4.14-.05-8.29-.12-12.43-.07-4.45.88-8.88,1.12-13.33.07-1.31.2-2.8-.56-4s-2.51-1.88-3.38-.47.44,2.17,1.52,2.55a6.14,6.14,0,0,0,6.11-1.23,5.3,5.3,0,0,0,1.28-5.48c-.32-.88-1.13-2.32-2.26-1.64-1.4.84-.27,3.17.36,4A6.92,6.92,0,0,0,47.5,51a100.19,100.19,0,0,0,12.85.65c6.14.13,12.25.32,18.4.12,16.4-.52,32.78-.84,49.2-1.11,13.78-.23,27.57-.11,41.36.09,8.14.12,16.29.38,24.43.15,3-.08,6.37.06,9.26-.83,2.24-.69,3.06-4.8,0-4.2-1.4.27-2,1.8-1.94,3.08.11,2.7,2.19,3.93,3.5,5.94.84,1.28.76,2.6,2.66,2.36,1.49-.19,3.28-1.69,2.57-3.35a1.71,1.71,0,0,0-2.22-.93,1.69,1.69,0,0,0-.48.3c-1.66,1.33-.68,4-.47,5.7a76.26,76.26,0,0,1,.14,9.44c0,4.34,0,8.68,0,13,0,2-.51,5.29,1.27,6.82,1,.83,2.8,1,3.34-.49.69-1.88-1.61-2.53-3-2.34-4.43.6-7.76,6.22-4.83,10.07,1,1.33,6.63,2.75,5.33-.56-.67-1.7-4.38-1.52-5.77-1.62-12.11-.81-24.54-.07-36.68,0-8.56,0-17.13,0-25.69,0-7.62,0-15.22-.54-22.84-.56-13.78,0-27.54.62-41.3.93-6.6.15-13.2.25-19.8.11-2.72,0-5.45-.14-8.17-.3-1.74-.1-5.14-.56-5.41,2A1.94,1.94,0,0,0,45,97.55a2.14,2.14,0,0,0,.62,0c1.65-.31,2-2,1.76-3.38-.13-.86-1.43-.5-1.3.36s11.18.6,12.31.61c4.51.07,9,0,13.52,0,9.73-.16,19.45-.53,29.17-.78,13.26-.34,26.44.23,39.69.31,19.25.11,38.55-.51,57.8-.14a47.22,47.22,0,0,1,7.7.51c.72.14,1.47.13,1.14.65s-2.14-.36-2.57-.77c-1.35-1.32-1.18-3.86-.27-5.36a5.18,5.18,0,0,1,1.52-1.57c.47-.34,2-.86,2.16-1.11s0-.47-.05-.93q-.06-1.18-.09-2.37c0-2.76,0-5.52,0-8.28,0-5.19.31-10.48-.08-15.66-.07-.87-.33-1.69-.42-2.55-.43-4.29.49-.68-1.25-1.36-.57-.23-.16-.63-.38-.91a18.33,18.33,0,0,0-1.49-1.9A6.26,6.26,0,0,1,202.58,50l-.17-.61.93-.84-.29.14a14.63,14.63,0,0,0-2.54.5c-10.72,1.31-21.74.29-32.5.25-9.82,0-19.67-.43-29.49-.25-11.81.2-23.61.43-35.42.6-17.95.25-36,1.82-53.92.3a8.11,8.11,0,0,1-3.68-.88,4.4,4.4,0,0,1-1.83-1.67c-.29-.58-.63-3.18,0-1.12A4.11,4.11,0,0,1,41,51.52a5.46,5.46,0,0,1-2.09.25c-3.08-.23-.63-.41-.23.14.21.29.08,1.18.07,1.51,0,1.69-.22,3.39-.39,5.07a76.56,76.56,0,0,0-.74,9.21c.11,5.12-.3,10.48.35,15.56.15,1.2.4,2.4.47,3.6,0,.65-.07,1.28-.06,1.9l-.1.7c-.11-1.08.31-1.47,1.27-1.16,3.05-.62,5.92,3.73,6.28,6.17.08.53.88.3.8-.22Z"/></g><g id="Group_118" data-name="Group 118"><g id="Group_116" data-name="Group 116"><path id="Path_225" data-name="Path 225" class="cls-2" d="M344.38,92.33,325.7,94.14V107l-7.5-.13-1.92-12.56-24.41.55-2-7.55L302,86.18l-4.5-14c-.73.9-1.46,1.79-2.2,2.56a62.1,62.1,0,0,0-8-5.78c5.36-4.84,7.75-12.79,10.08-20.82l11.55,2c-.47,1.46-1.28,3.88-1.88,5.34l28.34-.38-.14,7.3L325,63.58l.14,5.81L340.78,69l-1.6,8.51-13.85,0,.18,8.08,18.72-.33ZM303.44,63.18a68.14,68.14,0,0,1-4.35,6.8l16.64-.38-.14-5.8Zm12.65,22.39-.19-8.08-9.1.2,3,8Z"/><g id="Group_112" data-name="Group 112"><path id="Path_226" data-name="Path 226" class="cls-2" d="M372.82,71l2.29,22,27.4-.61.7-22.11Zm8.57,15-.55-7.65,13.5-.3.55,7.65Z"/><path id="Path_227" data-name="Path 227" class="cls-2" d="M376.09,59.59l-8.1.19,3.35,8,33.5-.75,1.72-8.14-7.69.17,1.79-9.15,4.6-.1-.18-8-13.31.3a47.91,47.91,0,0,0-2-7l-8.13,1.5a53.9,53.9,0,0,1,1.39,5.74l-13.12.3.18,8,5.27-.12C376.31,52.8,375.66,57.34,376.09,59.59Zm17.24-9.5a21.49,21.49,0,0,1-3.76,9.21l-7.32.06s.28-6.57-.85-9Z"/><path id="Path_228" data-name="Path 228" class="cls-2" d="M359.57,71.39l-.33-14.94,5.58-.13-.15-6.81L359,47.85,358.73,34l-1.94-.63-5.4.8L351,48,345.27,50l.15,6.81,5.78-.13L352,74.45c-2.43.93-4.1,2.92-5.9,3.52L349,82.78l18-7.14-1.8-5Z"/></g><path id="Path_229" data-name="Path 229" class="cls-2" d="M433.09,54.34l-.33-10.21L423,42.33,423.37,55,412.53,55l2.56,9.38,8-.1c-.64,7.53-1.1,17.53-7.62,24.64l6,5.25c8.41-9.12,10.89-20.3,11.42-30.11l15.63-.35c-.5,16.91-2.45,23.07-4.22,24.93a6.53,6.53,0,0,1-2.87,1.14s-.93.15-2,.37l1.08,8.07a19.3,19.3,0,0,0,3-.27,9.49,9.49,0,0,0,7-4.12c2.74-3.51,6.67-10.4,7.82-35.08.12-1.19.27-4.71.27-4.71Z"/><g id="Group_113" data-name="Group 113"><path id="Path_230" data-name="Path 230" class="cls-2" d="M284.86,53.35l-.15,6.73A198.65,198.65,0,0,1,255.87,62c-13.81-.19-27.2-1.25-27.2-1.25V54l23.29.08-.11-4.7-17-.51.12-6.34,16.79.51-.09-3.8-16.26-.39.09-6.72,16,.39-.06-2.63,9.29-.21.06,2.63,16.38-.45.46,6.7L260.91,39l.09,3.8L278.57,42l.27,6.34-17.7.84.11,4.7Z"/><path id="Path_231" data-name="Path 231" class="cls-2" d="M242.78,66.09l-.2,12c.1,4.64-1.51,12.3-5.19,16.4a38.51,38.51,0,0,1,7.12,6.37,21,21,0,0,0,4.79-10.28l17.76-.5,0,1c0,.94-.33,1.2-1.46,1.3-.94,0-5.21.17-7.92.07a30,30,0,0,1,2.94,7.13c5.08-.17,9.1-.36,12-1.52s3.86-3.08,3.73-7.16l-2.92-25.64Zm24.1,18.18-16.83.47c0-.63.07-2.75,0-3.38l16.67-.47Zm-.29-9.15L250,75.59,250,72.34l16.52-.47Z"/></g><path id="Path_232" data-name="Path 232" class="cls-2" d="M540.49,42a107,107,0,0,1-5.74,13.47l.92,40.89-7.7.17-2.55-26.06c-.89,1.14-1.79,2.14-2.69,3.15a65.61,65.61,0,0,0-5.35-10.2c5.58-5.84,6.91-14.95,9.86-24.08Zm22.32,15.93.12,5.45L579,63l-1.28,8.7L563.12,72l.14,5.91,16.88-.38-1.27,8.9-15.41.35-.67,13.88-7.4.17-2.57-38.62-.83-.76h0s-.55.17-.69.43c-2.46,4.62-4.93,5.4-7.66,8.65A58.79,58.79,0,0,0,536.26,64c5.59-5.91,10.5-15.48,13.18-24.94l12.25,2.24c-.8,2.58-4.73,5.15-5.79,7.67l23.39-2.43.34,11Z"/><path id="Path_233" data-name="Path 233" class="cls-2" d="M494.82,80.75a.89.89,0,0,1-.91-.87L492.21,48l16.22-.37.12-7.9L492,40.09l-8.95.2-15.66.35.48,7.89,15.36-.35-.75,32a.89.89,0,0,1-.87.91l-11.54.26-9.81.82.18,8.32,10.46.36,38.47-.87,8.18-1.72-.17-7.37-8.63-.4Z"/><g id="Group_115" data-name="Group 115"><path id="Path_234" data-name="Path 234" class="cls-2" d="M622.78,67.69,630,89.62l19.55-.44L654.63,67Zm11.5,15-2-7.62,13.5-.3-1.41,7.7Z"/><g id="Group_114" data-name="Group 114"><path id="Path_235" data-name="Path 235" class="cls-2" d="M638.88,42.28l.6-6.67-10.35-1.24.3,13.31.19,8.6.35,15.3,7.45-.16.07-15.32,11.3-1.28,7.4-2.47.43-12.81-8,2.09Z"/></g><path id="Path_236" data-name="Path 236" class="cls-2" d="M594.62,79.55l-9.08.2,3.36,8,31.53-.71,1.71-8.14-7.68.17.3-24,4.6-.1-.18-8-13.31.3c-.42-2.13.62-6.63.62-6.63l-10.22,2c.54,1.75,2.48,2.86,2.84,4.73l-13.12.3.18,8,5.27-.12S594.19,77.29,594.62,79.55Zm12.82-24.3c-.57,2.9.44,19.9-2.28,24.08h-4.38l-3.31-23.85Z"/></g></g><g id="Group_117" data-name="Group 117"><path id="Path_237" data-name="Path 237" class="cls-3" d="M638.88,42.28,637.49,56.1l11.3-1.28,7.4-2.47Z"/></g></g><g id="徵件報名系統" class="cls-4"><g class="cls-4"><path class="cls-2" d="M699.6,51.44a32.26,32.26,0,0,1-8.49,12.47l-1.34-4.24a27.75,27.75,0,0,0,6.05-10Zm5.92,25.33V74.08l-4.41.34-.76-3.49a121.35,121.35,0,0,0,13.07-1.22l1.22,3.19c-1.64.26-3.37.51-5.17.76v3.11h5.08V80.3h-5.08v3.15c1.64-.17,3.28-.38,4.87-.55v1.6a21.64,21.64,0,0,0,5.34-7.27,56.82,56.82,0,0,1-3.07-9.66q-.63,1-1.26,1.89l-1.05-1.3H699.93V64.5A32.83,32.83,0,0,1,698,68.07V88.78h-4.12V73.16c-.84.84-1.72,1.67-2.64,2.47l-1.3-4.16a26.34,26.34,0,0,0,6.88-10.12l3.7,1.77L700,64.38h14.28a47,47,0,0,0,4-14.37l3.82.67c-.3,1.93-.63,3.74-1,5.42h7.44v4h-1.73a54.11,54.11,0,0,1-2.94,17.1,34.43,34.43,0,0,0,5.55,8.06l-2.82,3.28a37,37,0,0,1-4.79-6.93,26.86,26.86,0,0,1-5.41,6.89l-2-3.15v1c-4,.54-8.32,1-12.89,1.38l-.93-3.61c1.68-.08,3.36-.21,5-.33V80.3h-5.33V76.77Zm4-26.55v8.19h1.64V52h3.53V62.11h-14v-10h3.53v6.34h1.72V50.22Zm10,15.42A49.54,49.54,0,0,0,721.52,72a55.18,55.18,0,0,0,1.6-11.93h-3.19a38.41,38.41,0,0,1-3.11,7.14Z"/><path class="cls-2" d="M749.16,51.44a48.41,48.41,0,0,1-4.08,9.28v28h-4.32V67.11c-1.1,1.34-2.23,2.64-3.41,3.9l-1.47-4.7A45.73,45.73,0,0,0,745,49.46Zm7.26,1.76a47.44,47.44,0,0,1-1.13,5.13h4.58V50.05h4.41v8.28h9.12v4.28h-9.12v8.61H775v4.25H764.28V88.61h-4.41V75.47H748.15V71.22h11.72V62.61h-6a36.9,36.9,0,0,1-3.78,7.14l-2.81-3.65a34.13,34.13,0,0,0,4.87-13.44Z"/><path class="cls-2" d="M794.48,49.88v4h5.92v3.86h-5.92v3.78h7.35v4h-3.11c-.3,1.64-.67,3.23-1.09,4.75h2.89v3.86h-6v3.82h7.39v4h-7.39V88.7h-4.25V81.89h-7.56v-4h7.56V74.12h-6.17V70.26h3.06c-.33-1.68-.67-3.24-1-4.75h-3.24v-4h7.35V57.78h-6V53.92h6v-4Zm.25,15.63H790c.34,1.47.63,3.07,1,4.75h2.68A32.87,32.87,0,0,0,794.73,65.51Zm12.18,23.23h-4.16V51.19h16.89c0,5-.3,8.44-.8,10.12s-2.06,2.44-4.66,2.44H811.4L810.23,60c.5,0,1.17,0,2,0a10.22,10.22,0,0,0,1.85-.13,1.68,1.68,0,0,0,.92-.8,19.45,19.45,0,0,0,.43-3.95h-8.49V66.18H820V70A32,32,0,0,1,816.61,81a26,26,0,0,0,5.09,4.45l-2.9,3.36a37.34,37.34,0,0,1-4.62-4.36,22.51,22.51,0,0,1-5.46,4.41l-1.81-3.24Zm0-3.82a18.42,18.42,0,0,0,4.62-4,25.72,25.72,0,0,1-4-10.76h-.63Zm7-7.69a29.07,29.07,0,0,0,2.23-7.06h-4.66A19.11,19.11,0,0,0,813.88,77.23Z"/><path class="cls-2" d="M842.73,88.66h-4.41V74.33c-2.27.67-4.7,1.35-7.22,1.93l-2.27-4.2a74.37,74.37,0,0,0,17.31-5,51,51,0,0,0-6.77-4.45l3.83-2.35A67.19,67.19,0,0,1,850,65a24.09,24.09,0,0,0,8.15-7.65H844a44.4,44.4,0,0,1-10.79,7.06l-2.94-3.83c7-2.94,11.84-6.59,14.32-10.88l4.83.59a22.84,22.84,0,0,1-1.76,2.94h15.46v3.87c-2.61,5.21-7.35,9.53-14.16,13h15.59V88.66h-4.46V86.47H842.73Zm17.35-14.45H842.73v8h17.35Z"/><path class="cls-2" d="M888.68,78.91A42.69,42.69,0,0,1,878.22,88l-2.64-3.49a41.82,41.82,0,0,0,10.12-8.19Zm-.59,9.49-.92-4.11a37.46,37.46,0,0,0,4.24.29c.76,0,1.18-.5,1.18-1.47V75c-4.16.21-8.66.42-13.44.63l-1.22-3.78a15,15,0,0,0,3.78-.8,66.55,66.55,0,0,0,11.17-4.91q-6.17.44-12.35.75l-.63-3.69a45,45,0,0,0,15.21-7.27c-3.53.88-8.36,1.89-14.58,3l-2.22-3.69a124.86,124.86,0,0,0,14-2.36,77.74,77.74,0,0,0,10.21-3.11l3.78,2.36a69.29,69.29,0,0,1-9.83,3.44l2.82,2.06a55.93,55.93,0,0,1-9.37,5.76c3-.26,6.05-.51,9.07-.8,1.68-1.1,3.45-2.23,5.21-3.45l4.2,2a144.41,144.41,0,0,1-18.73,10.5c5.54-.34,10.5-.71,14.78-1.13-.84-1.18-1.72-2.31-2.64-3.45l3.15-2a86.5,86.5,0,0,1,7.73,10.29l-3.49,2.35c-.71-1.26-1.51-2.56-2.39-3.86-3,.29-6.26.59-9.79.84v9.49c0,2.82-1.39,4.24-4.12,4.24ZM912.54,85l-3.06,3.07a62.93,62.93,0,0,0-9.79-9.41l2.85-2.77A77,77,0,0,1,912.54,85Z"/><path class="cls-2" d="M936.77,74.71l-3.44.88-.42-1.72A62.84,62.84,0,0,1,922,76.26l-1.09-3.78a6.53,6.53,0,0,0,1.84-1.17,34.3,34.3,0,0,0,4.54-6.22c-1.76.25-3.57.55-5.5.84l-1.05-3.74a4.15,4.15,0,0,0,1.72-1.51,77,77,0,0,0,4.62-11.13l4,1.59a65,65,0,0,1-5.59,10.76c1.35-.17,2.69-.38,4-.59.84-1.51,1.68-3.07,2.56-4.75L935.93,58a96.7,96.7,0,0,1-9.11,14c1.72-.34,3.48-.72,5.25-1.22-.38-1.13-.76-2.23-1.14-3.28l3.28-1.09A61.94,61.94,0,0,1,936.77,74.71ZM925.6,78.32a76.31,76.31,0,0,1-1,9.71l-3.74-1.18a45.7,45.7,0,0,0,1.26-9Zm5.63,7.44-3.66.88c-.25-3.28-.54-6.22-.88-8.74l3.19-.67C930.39,79.83,930.85,82.69,931.23,85.76Zm5-3.2L933,84.08a63.15,63.15,0,0,0-1.68-6.93l3-1.05A54.77,54.77,0,0,1,936.23,82.56ZM945.38,70q-.37,8.2-2.14,12a17.63,17.63,0,0,1-6.51,7L934,85.5A13.63,13.63,0,0,0,939.42,80c1-2,1.64-5.37,1.8-10Zm-9.07-5a3,3,0,0,0,.88-.33c1.26-.88,2.86-3.11,4.87-6.64h-5.67V53.92h9.2a33.34,33.34,0,0,0-1.42-3.62l4.41-.75c.46,1.3.92,2.77,1.34,4.37h8.91V58h-12.4a45.64,45.64,0,0,1-4.32,6.68c3.44-.25,6.84-.63,10.2-1.05-.75-1-1.51-2.06-2.31-3.07l3.32-2.1a78.39,78.39,0,0,1,6.56,9.08l-3.41,2.39a32.1,32.1,0,0,0-1.72-2.77c-5.38.63-11.17,1.13-17.47,1.51Zm17.31,23q-4.54,0-4.54-3.78V70h4.12V83.36a.67.67,0,0,0,.59.76h1.51c.59-.08.92-.67,1-1.68s.16-2.48.16-4.33l3.66,1.35c0,3.86-.3,6.25-.88,7.1s-1.81,1.26-3.78,1.42Z"/></g></g><g id="Group_120" data-name="Group 120"><path id="Path_238" data-name="Path 238" class="cls-5" d="M1209.9,26.73h0a4,4,0,0,1,4.06-3.94,4.07,4.07,0,0,1,2.43.87h0a4,4,0,0,1,.66,5.62,4.3,4.3,0,0,1-.64.64h0a4,4,0,0,1-6.51-3.19Z"/><path id="Path_239" data-name="Path 239" class="cls-5" d="M1246.94,50.31l-.07-.63a3.6,3.6,0,0,1,3.16-4,3.68,3.68,0,0,1,2.38.56l.38.25a3.6,3.6,0,0,1,1.07,5,3.15,3.15,0,0,1-.22.29l-.3.39a3.6,3.6,0,0,1-6.4-1.85Z"/><path id="Path_240" data-name="Path 240" class="cls-6" d="M1234.33,34.49l-.07-.63a3.6,3.6,0,0,1,5.54-3.43l.38.25a3.59,3.59,0,0,1,1.07,5,1.61,1.61,0,0,1-.21.3l-.31.39a3.61,3.61,0,0,1-6.4-1.85Z"/><path id="Path_241" data-name="Path 241" class="cls-6" d="M1263.55,50.21h0a3.6,3.6,0,0,1,5-3.93h0a3.59,3.59,0,0,1,1.9,4.72,5,5,0,0,1-.3.56h0a3.6,3.6,0,0,1-6.57-1.35Z"/><path id="Path_242" data-name="Path 242" class="cls-5" d="M1303,63.3h0a3.61,3.61,0,0,1,2.73-4.32,3.66,3.66,0,0,1,1.58,0h0a3.61,3.61,0,0,1,2.74,4.31,3.22,3.22,0,0,1-.31.87h0a3.61,3.61,0,0,1-6.74-.86Z"/><path id="Path_243" data-name="Path 243" class="cls-6" d="M1321.53,75.65h0a3.63,3.63,0,0,1,2.74-4.32,3.82,3.82,0,0,1,1.58,0h0a3.62,3.62,0,0,1,2.74,4.32,3.68,3.68,0,0,1-.31.86h0a3.62,3.62,0,0,1-6.75-.86Z"/><path id="Path_244" data-name="Path 244" class="cls-5" d="M1342,70.47h0a3.3,3.3,0,0,1,2.29-4.07,3.15,3.15,0,0,1,1.1-.11h0a3.29,3.29,0,0,1,3.07,3.51,3.16,3.16,0,0,1-.23,1h0a3.3,3.3,0,0,1-6.23-.34Z"/><path id="Path_245" data-name="Path 245" class="cls-5" d="M1411.56,78.2h0a3.29,3.29,0,0,1,2.28-4.07A3.44,3.44,0,0,1,1415,74h0a3.3,3.3,0,0,1,3.07,3.51,3.22,3.22,0,0,1-.23,1h0a3.3,3.3,0,0,1-6.23-.34Z"/><path id="Path_246" data-name="Path 246" class="cls-6" d="M1363.51,78.89h0a3,3,0,0,1,1.8-3.85,3.2,3.2,0,0,1,1-.18h0a3,3,0,0,1,3.06,2.94,2.89,2.89,0,0,1-.14,1h0a3,3,0,0,1-5.69.12Z"/><path id="Path_247" data-name="Path 247" class="cls-6" d="M1422.54,70.6h0a3,3,0,0,1,1.79-3.85,3.2,3.2,0,0,1,1-.18h0a3,3,0,0,1,3.07,2.94,2.89,2.89,0,0,1-.14,1h0a3,3,0,0,1-5.69.12Z"/><path id="Path_248" data-name="Path 248" class="cls-5" d="M1282.71,64.14h0a3.28,3.28,0,0,1,4.25-3.79h0a3.27,3.27,0,0,1,2,4.15,2.7,2.7,0,0,1-.24.55h0a3.27,3.27,0,0,1-6.06-.91Z"/><path id="Path_249" data-name="Path 249" class="cls-5" d="M1200.29,8h0a3.28,3.28,0,0,1,4.25-3.79h0a3.27,3.27,0,0,1,2.06,4.15,3.43,3.43,0,0,1-.25.55h0a3.28,3.28,0,0,1-6.06-.91Z"/><path id="Path_250" data-name="Path 250" class="cls-5" d="M1388.59,72.45h0a4,4,0,0,1,1.52-5.46,4.09,4.09,0,0,1,1.9-.51h0a4,4,0,0,1,4.08,3.94,5.25,5.25,0,0,1,0,.56h0a4,4,0,0,1-7.47,1.47Z"/><path id="Path_251" data-name="Path 251" class="cls-7" d="M1192.11.37c37.62,43.38,120.9,89.43,247.4,70.12"/></g></g></svg>