<svg id="BG" xmlns="http://www.w3.org/2000/svg" viewBox="0 0 104 104"><defs><style>.cls-1{fill:#dd3a3a;}.cls-2{fill:#fff;}</style></defs><g id="Group_171" data-name="Group 171"><path id="Rectangle_75" data-name="Rectangle 75" class="cls-1" d="M52,8h0A44,44,0,0,1,96,52h0A44,44,0,0,1,52,96h0A44,44,0,0,1,8,52H8A44,44,0,0,1,52,8Z"/><path id="Path_273" data-name="Path 273" class="cls-2" d="M23.52,56.75l22.17-24a8.75,8.75,0,0,1,12.38-.24l.24.24,22.17,24c4.57,5,.75,12.55-6.31,12.55H29.83C22.77,69.3,19,61.7,23.52,56.75Z"/><g id="Group_172" data-name="Group 172"><path id="Path_274" data-name="Path 274" class="cls-1" d="M54.63,43.51,54,57H49.89l-.58-13.49Zm-.09,19H49.4V59.1h5.14Z"/></g></g></svg>