<svg id="BG" xmlns="http://www.w3.org/2000/svg" viewBox="0 0 55 55"><defs><style>.cls-1{opacity:0.9;}.cls-2{fill:#3580e0;stroke:#3580e0;stroke-width:2px;}.cls-3{fill:#fff;}</style></defs><g id="Group_227" data-name="Group 227" class="cls-1"><path id="Rectangle_3" data-name="Rectangle 3" class="cls-2" d="M26.47,9.78h1.91A17.32,17.32,0,0,1,45.7,27.11h0A17.32,17.32,0,0,1,28.38,44.43H26.47A17.32,17.32,0,0,1,9.15,27.11h0A17.32,17.32,0,0,1,26.47,9.78Z"/><g id="Group_136" data-name="Group 136"><path id="Rectangle_69" data-name="Rectangle 69" class="cls-3" d="M28.8,18.45h0a1.88,1.88,0,0,1,0,2.67l-6.41,6.42a1.9,1.9,0,0,1-2.68,0h0a1.9,1.9,0,0,1,0-2.68l6.42-6.41A1.88,1.88,0,0,1,28.8,18.45Z"/><path id="Rectangle_70" data-name="Rectangle 70" class="cls-3" d="M26.05,18.45h0a1.88,1.88,0,0,1,2.67,0l6.42,6.41a1.9,1.9,0,0,1,0,2.68h0a1.9,1.9,0,0,1-2.68,0l-6.41-6.42A1.88,1.88,0,0,1,26.05,18.45Z"/><path id="Path_264" data-name="Path 264" class="cls-3" d="M27.52,38h0a1.89,1.89,0,0,1-1.89-1.89h0l-.14-16.21a1.91,1.91,0,0,1,1.84-2h0a1.89,1.89,0,0,1,1.89,1.89h0L29.36,36A1.91,1.91,0,0,1,27.52,38Z"/></g></g></svg>