<svg xmlns="http://www.w3.org/2000/svg" viewBox="0 0 320 90"><defs><style>.cls-1,.cls-3,.cls-4,.cls-5{fill:#fff;}.cls-1{stroke:#9f9f9f;}.cls-2{fill:#65be47;}.cls-4,.cls-5{isolation:isolate;}.cls-4{font-size:31.91px;font-family:PingFangTC-Regular-B5pc-H, PingFang TC;letter-spacing:0.08em;}.cls-5{font-size:31.92px;font-family:Helvetica;letter-spacing:0.08em;}</style></defs><g id="BG"><rect id="Rectangle_15" data-name="Rectangle 15" class="cls-1" x="10" y="9.28" width="299" height="71.44" rx="6.99"/><rect id="Rectangle_16" data-name="Rectangle 16" class="cls-2" x="10" y="9.28" width="299" height="71.44" rx="6.99"/><path id="Rectangle_19" data-name="Rectangle 19" class="cls-3" d="M270,27h0a18,18,0,0,1,18,18h0a18,18,0,0,1-18,18h0a18,18,0,0,1-18-18h0A18,18,0,0,1,270,27Z"/><path id="Union_1" data-name="Union 1" class="cls-2" d="M269.49,56.28,256.84,43.64l3.85-3.85,8.79,8.8L286,32.1,289.82,36Z"/></g><g id="txt"><g id="組織基本資料"><text class="cls-4" transform="translate(77.63 56.5)">計畫上傳</text></g><text class="cls-5" transform="translate(27.23 56.5)">3/</text></g></svg>