<svg id="BG" xmlns="http://www.w3.org/2000/svg" viewBox="0 0 55 55"><defs><style>.cls-1{opacity:0.9;}.cls-2{fill:#5ab63e;stroke:#5ab63e;stroke-width:2px;}.cls-3{fill:#fff;}</style></defs><g id="Group_244" data-name="Group 244" class="cls-1"><path id="Rectangle_3-3" data-name="Rectangle 3-3" class="cls-2" d="M26.47,9.78h1.91A17.32,17.32,0,0,1,45.7,27.11h0A17.32,17.32,0,0,1,28.38,44.43H26.47A17.32,17.32,0,0,1,9.15,27.11h0A17.32,17.32,0,0,1,26.47,9.78Z"/><g id="Group_136-3" data-name="Group 136-3"><path id="Rectangle_70-3" data-name="Rectangle 70-3" class="cls-3" d="M26.64,33.87h0a1.88,1.88,0,0,1-2.67,0l-6.42-6.41a1.9,1.9,0,0,1,0-2.68h0a1.9,1.9,0,0,1,2.68,0l6.41,6.42A1.88,1.88,0,0,1,26.64,33.87Z"/><path id="Path_264-3" data-name="Path 264-3" class="cls-3" d="M38.06,19.59h0a1.88,1.88,0,0,1,0,2.67h0L26.69,33.83a1.9,1.9,0,0,1-2.68.08h0a1.88,1.88,0,0,1,0-2.67h0L35.38,19.67A1.9,1.9,0,0,1,38.06,19.59Z"/></g></g></svg>