<svg xmlns="http://www.w3.org/2000/svg" viewBox="0 0 300 300"><defs><style>.cls-1{opacity:0.3;}.cls-2{fill:#fff;}.cls-3{fill:#309351;}</style></defs><g id="圖"><g class="cls-1"><path d="M213.94,203.81l-84.57-5a80.37,80.37,0,0,0-10.53,2c-9.07,2.42-15.86,5.76-18.4,9.49-6.8,10-3.49,15.84,3.22,25.45.21.3-21.38,5.26-23.88,6.17-6.13,2.23-10,5.48-9.76,8.4.07.91.53,1.86,2.2,2.53,2.14.86,5.78,1.1,9.15,1.28l24.15,1.34-28.48,7A19.28,19.28,0,0,0,72,264.18c-1.65,1.11-.68,2.38.32,3.5a20.07,20.07,0,0,0,7,5.55A36,36,0,0,0,94.37,276a77.06,77.06,0,0,0,14.09-1.87l37.19-7.44a38.89,38.89,0,0,1,5.76-.85A38.09,38.09,0,0,1,161.52,267c6.51,1.37,20.52,3.23,31.92,4.63a22.51,22.51,0,0,0,23.72-14.11c4.32-11,9.58-25,11.68-33.27A16.38,16.38,0,0,0,213.94,203.81Z"/></g><path class="cls-2" d="M67.77,165.27c-13.8-24.22-21.5-39.17-23.15-67A42.94,42.94,0,0,1,54,69.45c5.27-6.74,13.33-10.74,21.48-13.34,17.57-5.61,31.12-5,43,9.15,9.38,11.24,9.52,16.46,14.16,30.35,1.37,4.11,5.4,8.91,9.07,6.61l-1.1-13.41a196.77,196.77,0,0,1,26.75-4.49,111.68,111.68,0,0,1-18.39-35.76c-.92-3-1.71-6.26-1-9.35,1.16-4.89,5.8-8.12,10.39-10.19,12-5.41,25.73-6,38.7-3.84s25.34,7,37.43,12.21c4.7,2,9.88,4.63,11.36,9.53,2.19,7.2-4.81,13.55-10.53,18.44A104.63,104.63,0,0,0,214.87,89c4.28-1.9,9.4,1.16,11.64,5.27s2.47,9,3.13,13.61C233.35,134,252,156.25,255.45,182.4q-40.92-.1-81.81-1.93c1.3,3.24-2.29,6.56-5.75,7s-7-.64-10.46-.2-7.12,3.65-5.93,6.93a234.88,234.88,0,0,1,47.5,20.6c1.62.93,3.34,2,4.08,3.71a8.65,8.65,0,0,1,.23,4.58,92,92,0,0,1-5,19.32A7.19,7.19,0,0,1,196.1,246c-1.43,1-3.36.91-5.11.73A212.22,212.22,0,0,1,145.8,237c-3.32-1.1-7-2.28-10.21-1a14.53,14.53,0,0,0-4.62,3.39l-28.3,27.07c-3.38,3.23-7,6.57-11.47,7.76-5.57,1.46-11.6-.74-16.07-4.37s-7.7-8.54-10.84-13.37c-1.81-2.79-3.71-6-3.07-9.23.43-2.16,1.89-3.93,3.31-5.6l20.58-24.35-23.26,1.21c-3.25.17-6.78.26-9.44-1.62-2.06-1.45-3.23-3.87-4-6.27a32,32,0,0,1,2.31-24.25C52.28,183.43,68.2,166,67.77,165.27Z"/><path class="cls-3" d="M187.86,76.31l-.07.09.38-.42a1,1,0,0,1-.19.16l.47-.3a.67.67,0,0,1-.21.09l.54-.17a1,1,0,0,1-.25,0l.59,0a1,1,0,0,1-.34,0l.58.13a1.49,1.49,0,0,1-.4-.15l.5.26a2,2,0,0,1-.42-.3l.42.38a1.89,1.89,0,0,1-.32-.37l.31.47a2,2,0,0,1-.18-.36l.18.54a1.36,1.36,0,0,1-.07-.35l0,.59a1.66,1.66,0,0,1,0-.32l-.13.57a1.36,1.36,0,0,1,.11-.28l-.26.51a1.46,1.46,0,0,1,.22-.33l-.37.42a1.18,1.18,0,0,1,.32-.27l-.47.3a2.17,2.17,0,0,1,.41-.19l-.54.17a2.35,2.35,0,0,1,.59-.1l-.59,0a2.69,2.69,0,0,1,.69.06l-.58-.13a2.72,2.72,0,0,1,.62.23L189,77a2.49,2.49,0,0,1,.47.33l-.42-.38a2.3,2.3,0,0,1,.35.41l-.31-.47a2.42,2.42,0,0,1,.23.49l-.17-.54a3.76,3.76,0,0,1,.12.67l0-.59a3.12,3.12,0,0,1-.05.68l.12-.58a2,2,0,0,1-.21.58l.26-.5a1.7,1.7,0,0,1-.27.39l.37-.41a2.22,2.22,0,0,1-.33.28l.47-.31a1.81,1.81,0,0,1-.37.18l.54-.18a1.7,1.7,0,0,1-.31.06l.59,0a1,1,0,0,1-.35,0l.58.13a1.66,1.66,0,0,1-.37-.14l.51.26A1.7,1.7,0,0,1,190,77l.41.38a2.76,2.76,0,0,1-.31-.37l.31.47a1.65,1.65,0,0,1-.21-.42l.18.54a1.77,1.77,0,0,1-.08-.4l0,.59a2.83,2.83,0,0,1,0-.29l-.12.58a.79.79,0,0,1,.1-.27l-.27.5.15-.22-.37.42a4,4,0,0,0,.51-.58,2.72,2.72,0,0,0,.44-1.26,2.9,2.9,0,0,0-.28-1.51A3.25,3.25,0,0,0,188,73.41a2.73,2.73,0,0,0-1.51.28,2.68,2.68,0,0,0-1,.84l-.06.08a3.11,3.11,0,0,0-.31.6,3.67,3.67,0,0,0-.14.64s0,.08,0,.12a2.78,2.78,0,0,0,.07.81,3.25,3.25,0,0,0,.68,1.38,2.88,2.88,0,0,0,3.46.78,2.29,2.29,0,0,0,1.1-1.23,2.23,2.23,0,0,0-.08-1.7,2.19,2.19,0,0,0-2.93-1l-.1.05.54-.18-.14,0,.59,0H188l.57.12-.16-.06.51.26a1.18,1.18,0,0,1-.18-.13l.42.38a.82.82,0,0,1-.17-.2l.31.47a.84.84,0,0,1-.12-.23l.18.54a1.3,1.3,0,0,1,0-.21l0,.59a1,1,0,0,1,0-.17l-.13.58a.5.5,0,0,1,.05-.13l-.26.5a.42.42,0,0,1,.08-.12l-.38.42a.52.52,0,0,1,.11-.1l-.47.31.13-.07-.54.18.17,0-.59,0h.17l-.58-.12a.7.7,0,0,1,.2.08l-.5-.27.21.15-.42-.37a1,1,0,0,1,.17.19l-.31-.46a1.14,1.14,0,0,1,.1.19l-.18-.54,0,.17,0-.59s0,.09,0,.14l.12-.58a.5.5,0,0,1,0,.13l.26-.5-.06.09.38-.41a3,3,0,0,0-.61.71,3.46,3.46,0,0,0-.49,1.39,3.57,3.57,0,0,0,.3,1.85,3.42,3.42,0,0,0,.77,1.15,4.06,4.06,0,0,0,1.59,1,3.42,3.42,0,0,0,1.93.1,3.85,3.85,0,0,0,1.68-.92,4.44,4.44,0,0,0,1.06-1.6,4.19,4.19,0,0,0,.28-1.44,4.57,4.57,0,0,0-1.11-3.18,4.77,4.77,0,0,0-3-1.47,4.34,4.34,0,0,0-3.11.88A3.46,3.46,0,0,0,185.1,77a3.84,3.84,0,0,0,.86,1.75,4.41,4.41,0,0,0,1.57,1.13,3.32,3.32,0,0,0,1.92.23,3.23,3.23,0,0,0,2-1.28,2.25,2.25,0,0,0,.36-1.67,2.21,2.21,0,0,0-2.57-1.74,2.44,2.44,0,0,0-1.39.9Z"/><path class="cls-3" d="M182.83,69.75a11,11,0,0,1,1.59-1.39c.52-.37-.32.15.24-.15l.46-.25a10.45,10.45,0,0,1,1-.44c.16-.06.33-.13.5-.18-.3.09,0,0,.16,0,.35-.09.69-.17,1-.23a11.14,11.14,0,0,1,1.16-.15c.16,0,.28,0,.05,0h.64a8.55,8.55,0,0,1,3.76.79,8.39,8.39,0,0,1,3,2.2c1.83,2.15,5.17-.69,3.34-2.85-4.8-5.66-14.57-6.14-19.7-.63a2.26,2.26,0,0,0-.25,3.09,2.21,2.21,0,0,0,3.09.24Z"/><path class="cls-3" d="M175.22,58.47A28.46,28.46,0,0,1,205,64.55c2,2,5.34-.86,3.33-2.84a33,33,0,0,0-35-7.19c-2.63,1-.71,5,1.9,3.95Z"/><path class="cls-3" d="M168.58,44.43a65,65,0,0,1,48.84,14c2.2,1.78,4.69-1.83,2.51-3.6a69.44,69.44,0,0,0-52.18-14.71c-2.8.36-2,4.67.83,4.31Z"/><path class="cls-2" d="M154.16,129.61q-9.51,15-17.68,30.85,48.5,1.42,96.82,6.19c1-2.49-.37-5.24-1.69-7.58q-7.41-13.09-14.83-26.2"/><path class="cls-3" d="M153.26,129q-9.57,15.17-17.81,31.11a1.1,1.1,0,0,0,.94,1.47q37.83,1.11,75.55,4.25,10.65.88,21.27,1.94a1.11,1.11,0,0,0,1.12-.72c.91-2.81-.08-5.4-1.43-7.89-1.58-2.91-3.26-5.77-4.89-8.66L217.77,132.4c-.69-1.22-2.67-.28-2,.95L225,149.57l4.59,8.1c1.42,2.52,3.68,5.58,2.7,8.61l1.12-.72q-37.66-3.7-75.48-5.4-10.66-.48-21.34-.79l.94,1.47q8.12-15.68,17.54-30.61c.76-1.19-1-2.45-1.79-1.25Z"/><path class="cls-3" d="M160.69,152.35l-.55,1.72a1.11,1.11,0,0,0,.94,1.47l55.48,4.73a1.12,1.12,0,0,0,1.18-1c0-1.4-.35-3.57-1.62-4.45-.72-.5-2.22-.29-3.06-.34l-4-.24q-7.92-.48-15.84-1-15.82-1.09-31.64-2.42a1.09,1.09,0,0,0-.18,2.18q14,1.18,28.05,2.18,6.84.48,13.68.92l7.2.45,3.24.19c1.58.09,1.9.74,1.94,2.39l1.18-1-55.48-4.73.95,1.47.55-1.72c.43-1.34-1.63-2.09-2.06-.75Z"/><path class="cls-3" d="M158.58,138.13a5.39,5.39,0,0,0-.53,1.4A5.1,5.1,0,0,0,158,141a1.09,1.09,0,0,0,1,.89l2.44-.09,1.22-.05a4,4,0,0,0,1.45-.17c1-.46.94-1.51.95-2.44l0-2.42a1.12,1.12,0,0,0-.47-1,1.09,1.09,0,0,0-1.1-.08c-.28.14-.56.26-.86.38l-.39.14c-.28.1.22-.06-.06,0l-.2.06a10,10,0,0,1-1.8.35,1.11,1.11,0,0,0-.87,1.29,1.13,1.13,0,0,0,1.28.87,11.49,11.49,0,0,0,3.85-1.14l-1.57-1.07,0,2.14c0,.35,0,.71,0,1.07a1,1,0,0,0,0,.17c0,.05,0,.09,0,.13l0-.16c0,.09,0,.08,0,0a.57.57,0,0,1,.32-.31c.16,0,.19-.06.11,0h-.36l-.51,0-1.13,0-2.16.09,1,.88c0,.3,0,0,0,0a2.18,2.18,0,0,1,0-.25c0-.07,0-.13,0-.2s.06-.32,0-.15,0-.06,0-.1.05-.15.08-.23a1.57,1.57,0,0,1,.09-.23c0-.06.14-.29,0-.05a1.17,1.17,0,0,0,.18-.83,1.13,1.13,0,0,0-.45-.7,1.12,1.12,0,0,0-1.53.28Z"/><path class="cls-3" d="M174.16,146.48l-.21,1.78a1.1,1.1,0,0,0,.72,1.12l4.63,1.16a1.11,1.11,0,0,0,1.4-.66,19,19,0,0,1,1.48-4,1.11,1.11,0,0,0-1-1.47c-.32,0-.65,0-1-.06l-.49-.07-.21,0c-.2,0,.24.06-.09,0a9.46,9.46,0,0,1-1.85-.65,1.1,1.1,0,0,0-1.4.66,1.12,1.12,0,0,0,.65,1.4,10.15,10.15,0,0,0,4.19,1l-.94-1.46a18.42,18.42,0,0,0-1.48,4l1.41-.65-4.63-1.16.72,1.12.21-1.78a1.1,1.1,0,0,0-2.19-.18Z"/><path class="cls-3" d="M193.7,147.17a2.68,2.68,0,0,0,.32,4,5.82,5.82,0,0,0,3.87.93,4.56,4.56,0,0,0,2.06-.45,2.7,2.7,0,0,0,1.34-1.64,3.55,3.55,0,0,0-1.3-3.61c-1.34-1.1-3.25-1-4.87-.9a1.1,1.1,0,0,0-.87,1.28,1.14,1.14,0,0,0,1.28.88l.2,0c-.22,0,0,0,0,0h.4a7.85,7.85,0,0,1,.84,0,6.65,6.65,0,0,1,.78.09c.17,0-.16-.05,0,0l.18.05c.14,0,.27.1.41.15s0,0,0,0l.14.08.24.18c.13.09,0,0,0,0s.11.11.11.11l.21.26c.09.11-.09-.17,0,0l.07.13c0,.09.07.18.12.27s0-.2,0-.06a.61.61,0,0,0,0,.11.59.59,0,0,1,0,.14.36.36,0,0,1,0,.11q0,.12,0-.12s0,.23,0,.28-.07,0,0-.08,0,.12,0,.13l-.05.13s.16-.24,0-.07l-.08.12c-.1.16.11-.09,0,0a1.2,1.2,0,0,0-.21.17c0-.06.17-.09,0,0l-.14.07c-.19.09,0,0,0,0l-.15,0a3,3,0,0,1-.41.08l-.12,0h-.33l-.69,0q-.37,0-.75-.06c-.07,0-.41-.08-.17,0l-.44-.13-.12,0c-.11-.05-.16-.09,0,0l-.15-.1a.39.39,0,0,1-.1-.08c-.07-.05,0,0,.07.07s-.3-.3-.16-.17,0,0,0,0-.05-.11-.08-.16,0,.06,0,.06-.05-.2-.05-.21,0-.08,0,0h0v-.07a.61.61,0,0,0,0-.14c0,.16,0,.21,0,.12l0-.09s-.18.2,0,.07-.18.15,0,0a1.1,1.1,0,1,0-1.42-1.67Z"/><path class="cls-3" d="M203.81,137a3,3,0,0,0,1.71,4.22,6.34,6.34,0,0,0,2.7.25c.39,0,.89-.08,1.15-.09a4.42,4.42,0,0,1,.63,0l.38,0c.19,0,0,0,.2,0a1.11,1.11,0,0,0,1.34-.52,1.1,1.1,0,0,0-.34-1.4c-.24-.18.09.1,0,0s.07.2,0,0a.61.61,0,0,1,0-.12q-.06-.15,0,.09s0-.16-.05-.19,0-.21,0-.27c0,.18,0,.2,0,.08v-.07c0-.17,0-.34,0-.52a4.77,4.77,0,0,0-.25-2.37,2.27,2.27,0,0,0-1.1-1,4.76,4.76,0,0,0-1.76-.25l-3.74-.14a1.09,1.09,0,1,0-.17,2.18l3.54.14.89,0h.22q.18,0,.06,0c-.16,0,.42.1.07,0l.1.08-.12-.11.08.09c-.09-.15-.11-.18-.06-.08a1.38,1.38,0,0,0,.08.17c-.06-.18-.07-.21,0-.09s0,.06,0,.09l0,.23c0,.24,0-.26,0,0s0,.34,0,.51c0,.33,0,.66,0,1a2.76,2.76,0,0,0,1,2.34l1-1.93a7.36,7.36,0,0,0-2.52-.18c-.35,0-.7.07-1.06.09h-.35c-.17,0-.35,0-.52,0l-.23,0h-.05a2.84,2.84,0,0,1-.49-.17c-.16-.07.09.06,0,0l-.18-.13c.08,0,.08.08,0,0l-.12-.14c-.13-.14,0,.08,0,0l-.09-.16s-.08-.2,0-.07,0-.09,0-.12,0-.06,0,0a1,1,0,0,0,0-.17h0s.13-.23,0,0a1.12,1.12,0,0,0-.28-1.53,1.1,1.1,0,0,0-1.52.28Z"/><path class="cls-3" d="M186.5,146.87a1.78,1.78,0,0,0-1.36,1.77,2.18,2.18,0,0,0,1.4,2,6.08,6.08,0,0,0,2.16.31l2.35.13a1.11,1.11,0,0,0,1.16-1.3l-1.12-4.8a1.1,1.1,0,0,0-.58-.76,1.14,1.14,0,0,0-1,0l-2.53.89a1.11,1.11,0,0,0-.51,1.47,1.14,1.14,0,0,0,1.47.51l2.52-.9-1.56-.78,1.13,4.8,1.16-1.3-1.83-.09c-.56,0-1.13,0-1.68-.11l-.15,0c-.24,0,.17.06,0,0l-.34-.11c-.13-.05.23.13,0,0s.08.1,0,0,0-.09,0,.09a.26.26,0,0,0-.05-.09c-.09-.15,0,.17,0,.09a.31.31,0,0,0,0-.13s0,.29,0,.1,0-.07,0,.11l0-.09c.05-.18-.1.18,0,.1s-.21.19-.07.08l-.16.1c.1,0,.06,0-.13,0a1.12,1.12,0,0,0,.87-1.28,1.1,1.1,0,0,0-1.28-.87Z"/><path class="cls-3" d="M165.05,144.54a2,2,0,0,0-1,1.53,2.44,2.44,0,0,0,.49,1.65c.7,1,2,1.07,3.14,1l1.82-.08a3.21,3.21,0,0,0,1.85-.46c1.14-.82.6-2.53.1-3.57a6.4,6.4,0,0,0-2.33-2.64,1.1,1.1,0,0,0-1.26,1.8,4.27,4.27,0,0,1,.44.3l.19.16c.1.08,0,0,0,0s.09.08.12.11a4.48,4.48,0,0,1,.36.4l.15.19.08.1.06.09c-.08-.12.05.09.07.12a1.64,1.64,0,0,1,.12.22,5.05,5.05,0,0,1,.24.53s.1.27.05.13l0,.14c.05.2.09.39.12.59s0,0,0-.06a1,1,0,0,1,.06-.16s.2-.21.11-.13.1-.06.09-.06c-.16.09.2,0,0,0l-.26,0c-.28,0,.21,0-.06,0h-.33l-.75,0-1.31.06a4.87,4.87,0,0,1-.54,0l-.3,0h.07a.49.49,0,0,1-.16,0l-.12,0c-.13,0,.18.13,0,0l-.09-.07c-.12-.07.16.15.06.06a.24.24,0,0,0-.06-.08s.12.22.05.07a.59.59,0,0,0,0-.08c-.1-.19,0,0,0,0s0-.34,0-.1,0-.08,0-.1,0,.26,0,.14,0,0-.05.07.09-.11,0,0,.18-.09-.14.1a1.11,1.11,0,0,0,.51-1.46,1.1,1.1,0,0,0-1.46-.51Z"/><path class="cls-3" d="M212.47,145.25l.06.16c0-.12-.05-.15,0-.07s.06.19.08.28.08.33.12.5l.09.54,0,.29V147a2.08,2.08,0,0,1,0,.25v.26c0,.19,0,.39,0,.59s0,.33-.06.5a2.21,2.21,0,0,1-.05.25c0,.12,0,.11,0,0a.94.94,0,0,0,0,.16l1.11-.71-4.74-.58a1.1,1.1,0,0,0-.17,2.19l4.74.57a1.11,1.11,0,0,0,1.12-.72,9.29,9.29,0,0,0-.29-5.42,1.1,1.1,0,0,0-1.46-.51,1.12,1.12,0,0,0-.51,1.46Z"/><path class="cls-3" d="M208.69,144.84a12.09,12.09,0,0,1-.94,1.39l-.28.34-.15.17c.06-.07.05-.06,0,0l-.55.55a13,13,0,0,1-1.3,1s-.29.19-.14.1l-.38.23c-.26.15-.52.29-.79.42a1.11,1.11,0,0,0,.1,2l5.39,2.43a1.1,1.1,0,0,0,1.41-.65,1.13,1.13,0,0,0-.66-1.41L205,149.09l.11,2a12.92,12.92,0,0,0,5.41-5,1.13,1.13,0,0,0-.28-1.53,1.11,1.11,0,0,0-1.52.27Z"/><path class="cls-3" d="M152.08,145.16l-.26,3.64a1.11,1.11,0,0,0,1,1.18,22.69,22.69,0,0,0,5-.14,1.1,1.1,0,0,0,.88-1l0-2.09a7.1,7.1,0,0,0,0-1.22,1.79,1.79,0,0,0-.68-1.16,2.27,2.27,0,0,0-2.13-.17,5.66,5.66,0,0,0-.7.34l-.21.09c-.21.11.22,0,0,0H155c-.12,0-.09,0,.08,0l-.21,0a1.08,1.08,0,0,0-1.18,1,1.12,1.12,0,0,0,1,1.18,2.85,2.85,0,0,0,1.79-.43l.29-.15c.11-.05.19,0,0,0a.53.53,0,0,1,.12,0,.9.9,0,0,0,.16,0c.12,0-.26,0-.08,0s.23,0,0,0,0,0,0,0-.24-.13-.11,0a.39.39,0,0,1-.18-.18c0-.08,0-.09,0,0s-.05-.21,0,0c0-.13,0-.18,0,0s0,.58,0,.87l0,1.87.88-1-1.17.13-.54,0c.26,0,0,0-.07,0h-.32a22.47,22.47,0,0,1-2.32-.07l1,1.18.25-3.65a1.09,1.09,0,1,0-2.18-.17Z"/><path class="cls-3" d="M167.51,142.65l-.3,0a.79.79,0,0,0-.43.06.87.87,0,0,0-.37.19.84.84,0,0,0-.25.34.83.83,0,0,0-.13.41l0,.29a1,1,0,0,0,.24.51l.21.19a1.13,1.13,0,0,0,.54.19l.29,0a.78.78,0,0,0,.43-.06.75.75,0,0,0,.37-.2.83.83,0,0,0,.26-.33.79.79,0,0,0,.12-.42v-.29a1.11,1.11,0,0,0-.24-.5l-.21-.19a1,1,0,0,0-.54-.2Z"/><path class="cls-3" d="M171.15,134.88l-.77,3.3a1.09,1.09,0,0,0,1.23,1.45l2.42-.31,1.21-.16c.19,0,.39,0,.57-.07a1.42,1.42,0,0,0,.93-.89,3.39,3.39,0,0,0-1.15-4.22,3.51,3.51,0,0,0-2.62-.51,1.1,1.1,0,1,0,.42,2.16c.09,0,.2,0,.29,0-.21.07-.2,0-.08,0h.15l.15,0c.18,0,0,0-.08,0a1.31,1.31,0,0,1,.28.09l.14.06c.11,0,.11.11-.06,0,.07.06.18.1.25.16l.12.09c.1.07-.19-.2-.05-.05l.19.23c.09.11,0-.05-.05-.08s.07.11.09.16a.54.54,0,0,1,.05.11c0,.09.06.25,0,0,0,.1.05.2.07.3s0,.08,0,.12c0,.21,0-.21,0-.08s0,.2,0,.31a.77.77,0,0,0,0,.15c0,.21,0-.2,0-.08s-.06.2-.1.29,0,.09-.07.14l.08-.14a.61.61,0,0,1-.07.1l.7-.45-4.2.55,1.24,1.45.77-3.3a1.14,1.14,0,0,0,0-.85,1.1,1.1,0,0,0-.61-.55,1.12,1.12,0,0,0-1.41.65Z"/><path class="cls-3" d="M179.61,135.37l-.81,1.54c-.38.72-.87,1.42-.52,2.25s1.22.89,1.94,1a11.69,11.69,0,0,0,1.87,0,10.12,10.12,0,0,0,1.64-.23,1.72,1.72,0,0,0,.71-.3,1.16,1.16,0,0,0,.37-.64,3.3,3.3,0,0,0,.12-.89,3.53,3.53,0,0,0-5.21-3.18,1.11,1.11,0,0,0-.51,1.46,1.12,1.12,0,0,0,1.47.51l.3-.14c.2-.09-.17,0,0,0l.16,0,.2,0c.15,0,0,0-.1,0h.34l.19,0c.16,0-.05,0-.09,0s.22.06.32.1l.18.08s-.2-.11-.08,0a3.21,3.21,0,0,1,.3.21c.1.07-.19-.2,0,0l.11.12.1.12c.12.15-.09-.16,0,0l.15.29.06.14c.07.18-.05-.19,0,0a2.84,2.84,0,0,1,.06.31.77.77,0,0,0,0,.15c0-.06,0-.26,0-.07s0,.21,0,.32,0,0,0-.07a1.06,1.06,0,0,0-.06.19l.83-.71a11.21,11.21,0,0,1-1.72.28c-.28,0,.25,0,0,0h-.66a8.5,8.5,0,0,1-.87-.07l-.4-.06c-.12,0,.25.09.08,0l.12.07c-.18-.13-.08,0,.3.47v.16c0,.16,0,.2,0,.12s0-.09,0,0c0-.12.17-.31.23-.42l.87-1.65a1.23,1.23,0,0,0,.18-.84,1.16,1.16,0,0,0-.45-.69,1.12,1.12,0,0,0-1.53.27Z"/><path class="cls-3" d="M187.52,139.1l0,.93a1.1,1.1,0,0,0,1,1.18L193,141a1.16,1.16,0,0,0,1-.47,1.09,1.09,0,0,0,.09-1.1,9.2,9.2,0,0,0-3.05-3.33,1.1,1.1,0,1,0-1.25,1.8,6.13,6.13,0,0,1,.77.57l.17.14c.17.14-.16-.16,0,0s.23.22.34.34a8.69,8.69,0,0,1,.61.75l.12.18c.15.21-.12-.21,0,0s.18.3.26.45l1.08-1.57-4.56.21,1,1.18.05-.93a1.1,1.1,0,0,0-2.19-.17Z"/><path class="cls-3" d="M199,137.4a2.55,2.55,0,0,0-1.4,2.29,2.48,2.48,0,0,0,1.57,2.39,2.69,2.69,0,0,0,2.69-.63,2.48,2.48,0,0,0,.75-1.49,2.65,2.65,0,0,0-.29-1.49,5.13,5.13,0,0,0-2.18-2,1.2,1.2,0,0,0-.83-.17,1.09,1.09,0,0,0-.69.45,1.09,1.09,0,0,0,.27,1.52,6.84,6.84,0,0,1,1.26.86L200,139a3,3,0,0,1,.47.53l-.16-.24a2.35,2.35,0,0,1,.22.45l-.09-.27a1.78,1.78,0,0,1,.07.39l0-.29a1.37,1.37,0,0,1,0,.35l.06-.29a1.63,1.63,0,0,1-.11.31l.13-.25a1.61,1.61,0,0,1-.21.3l.18-.21a1.69,1.69,0,0,1-.32.27l.24-.16a1.46,1.46,0,0,1-.38.18l.27-.08a1.86,1.86,0,0,1-.41.08l.3,0a1.51,1.51,0,0,1-.37,0l.29.06a1.15,1.15,0,0,1-.31-.11l.25.13a1.27,1.27,0,0,1-.27-.18l.21.19a1.16,1.16,0,0,1-.2-.24l.15.23a1.77,1.77,0,0,1-.15-.31l.09.27a2,2,0,0,1-.08-.43l0,.3a1.63,1.63,0,0,1,0-.44l-.06.29a2,2,0,0,1,.14-.41l-.13.25a1.87,1.87,0,0,1,.2-.29l-.19.21a1.86,1.86,0,0,1,.26-.23l-.23.16.14-.08a1.09,1.09,0,1,0-1-2Z"/><path class="cls-2" d="M153.05,130.69a154,154,0,0,1,4.48-34.46,169.54,169.54,0,0,1,59.41,2.58,265,265,0,0,1-1.62,36.07,140.34,140.34,0,0,0-62.79-6.1"/><path class="cls-3" d="M154.14,130.78a155.58,155.58,0,0,1,4.42-34.18l-.83.7a169.91,169.91,0,0,1,58.84,2.54l-.72-1.12a270.11,270.11,0,0,1-1.62,36.08l1.47-1a142.66,142.66,0,0,0-63.38-6.14c-1.4.18-1,2.33.42,2.15a140.09,140.09,0,0,1,62.21,6,1.11,1.11,0,0,0,1.47-.94A271.79,271.79,0,0,0,218,98.89a1.12,1.12,0,0,0-.72-1.11,172.91,172.91,0,0,0-60-2.63,1.05,1.05,0,0,0-.82.7A157.88,157.88,0,0,0,152,130.6c0,1.41,2.15,1.59,2.18.18Z"/><path class="cls-3" d="M177.72,105.64,193.19,107a1.1,1.1,0,0,0,.18-2.19l-15.48-1.39a1.1,1.1,0,0,0-.17,2.19Z"/><path class="cls-3" d="M184.57,113.38l7.16-.41a1.09,1.09,0,0,0,.87-1.28,1.12,1.12,0,0,0-1.28-.87l-7.16.41a1.1,1.1,0,0,0-.87,1.28,1.13,1.13,0,0,0,1.28.87Z"/><path class="cls-3" d="M188.11,117.42l5.09-.38a1.11,1.11,0,0,0,.87-1.29,1.13,1.13,0,0,0-1.28-.87l-5.1.38a1.12,1.12,0,0,0-.87,1.29,1.14,1.14,0,0,0,1.29.87Z"/><path class="cls-3" d="M198,115.71l-.07.49a.78.78,0,0,0,.06.43.89.89,0,0,0,.2.37.73.73,0,0,0,.33.25.8.8,0,0,0,.42.13h.29a1.11,1.11,0,0,0,.51-.25l.18-.2a1.12,1.12,0,0,0,.2-.54l.06-.5a1.2,1.2,0,0,0-.26-.8.81.81,0,0,0-.33-.25.86.86,0,0,0-.41-.13l-.3,0a.94.94,0,0,0-.5.24l-.19.21a1,1,0,0,0-.19.54Z"/><path class="cls-2" d="M68,96.05c5-8.78,21.08-15.54,31.2-12.55,11.92,3.53,23.28,11.86,29.44,22.86a34.61,34.61,0,0,1,0,33.23C123.13,149.43,112.8,156,101.5,158c-5.83,1-12.33.73-17.43-2.73-3.33-2.26-5.74-5.65-7.79-9.11a76.45,76.45,0,0,1-10.71-37C65.47,104.58,65.85,99.9,68,96.05Z"/><path class="cls-3" d="M69.83,97.31c2.93-5,8.27-8.23,13.55-10.26,5.51-2.12,11.35-2.8,17-.89,12.85,4.37,25.61,14.68,29.23,28.24a32.56,32.56,0,0,1-13.11,35.23,38.32,38.32,0,0,1-18.37,6.59,21.4,21.4,0,0,1-10.92-1.67c-3.34-1.59-5.82-4.48-7.81-7.53a72.6,72.6,0,0,1-9.91-23.88,71.23,71.23,0,0,1-1.69-12.59c-.18-4.43-.12-9.25,2-13.24,1.33-2.46-2.26-5-3.6-2.51-4.1,7.59-3.19,17.19-1.79,25.42A78.9,78.9,0,0,0,73,144.86,39.64,39.64,0,0,0,80.29,155a20.91,20.91,0,0,0,10.86,5.3c7.56,1.34,15.83-.66,22.62-4,13.84-6.85,22.38-20.88,21.2-36.39-1.24-16.22-13.87-29.25-28-35.81-3.59-1.66-7.47-3.17-11.44-3.43a31.45,31.45,0,0,0-11.27,1.51C77.3,84.32,70,88.37,66.23,94.8,64.81,97.22,68.4,99.74,69.83,97.31Z"/><path class="cls-3" d="M105.45,160a556.22,556.22,0,0,0,8,62.46c.51,2.77,4.82,2,4.31-.83a555.63,555.63,0,0,1-7.95-62.46c-.2-2.8-4.5-2-4.31.83Z"/><path class="cls-3" d="M101.92,160.78a130.84,130.84,0,0,0-29.29,38.85c-1.25,2.53,2.88,4,4.12,1.5a125.28,125.28,0,0,1,28-37c2.09-1.9-.75-5.24-2.84-3.34Z"/><path class="cls-3" d="M113,221.39a86.68,86.68,0,0,0-27.48,26.32c-1.55,2.36,2,4.87,3.6,2.51a81.66,81.66,0,0,1,25.78-24.88,2.26,2.26,0,0,0,1-2.93,2.2,2.2,0,0,0-2.92-1Z"/><path class="cls-3" d="M113.81,210.33A245.91,245.91,0,0,1,170.33,229c2.55,1.2,4-2.93,1.5-4.12A250.34,250.34,0,0,0,114.15,206c-2.76-.55-3.08,3.82-.34,4.37Z"/><path class="cls-3" d="M91.38,135c4.62,3,10.16,6,15.82,4.19a13.58,13.58,0,0,0,9.32-10.39,2.21,2.21,0,0,0-2-2.36,2.25,2.25,0,0,0-2.36,2,9,9,0,0,1-6.34,6.6c-4.31,1.16-8.46-1.38-11.92-3.65-2.36-1.55-4.87,2.05-2.51,3.6Z"/><path class="cls-3" d="M113,179.73a269.81,269.81,0,0,0,29.69-.29q3.59-.23,7.16-.56c2-.19,4.36-.09,5.53-2,1-1.69.88-4.34,1.1-6.26l.86-7.58c.32-2.81-4-3.15-4.37-.35l-.71,6.2-.35,3.11-.16,1.37c0,.39-.41,1.36.26.9-.56.38-2.34.25-3,.31l-3.23.28c-2.19.17-4.38.33-6.58.44-8.62.46-17.26.46-25.87.06-2.82-.13-3.18,4.24-.35,4.38Z"/><path class="cls-3" d="M77.27,100.38a13.62,13.62,0,0,1,16.89-1.74,2.23,2.23,0,0,0,3.32-1A12.35,12.35,0,0,1,119.6,98c1.18,2.36,4.3,1,4.13-1.37-.4-5.58-3.34-10.59-7.21-14.53a40,40,0,0,0-15-9.88,19,19,0,0,0-9.22-.95c-1.38.23-2.69.73-4,1a8.83,8.83,0,0,1-4.71-.53c-2.84-.92-5.61-1.61-8.51-.49a12.8,12.8,0,0,0-5.61,4.79c-4,5.81-5.76,13.56-6.39,20.49a2.2,2.2,0,0,0,2,2.36,4.14,4.14,0,0,1,3,.93c1,.87,2.67,1.17,3.47-.17L79,87.12l-3.86-2A19.11,19.11,0,0,1,69.24,92l3.48,2.42A33.67,33.67,0,0,1,78.86,83L75,81l-3.27,6.34c-1.18,2.29,2.43,3.88,3.86,2l7.65-10.06-3.86-2a39.84,39.84,0,0,1-5.58,11l3.86,2a25.58,25.58,0,0,1,7.58-9l-3.61-1.84a24.08,24.08,0,0,1-3.75,12.21l3.86,2a18,18,0,0,1,6.19-8L84.54,85A9.51,9.51,0,0,1,84,92.81c-1.14,2.28,2.45,4,3.86,2l7.31-10.15-4-.84A6,6,0,0,1,90.47,88l3.86,2a36.56,36.56,0,0,1,3.09-8.26L94,82a2.47,2.47,0,0,1,.17,3.48l4,1.43a14.2,14.2,0,0,1,3.62-9.38l-3.47.17A5.29,5.29,0,0,1,98,84.2L101.6,86a10.12,10.12,0,0,1,3-6.68L101,78.1a7.41,7.41,0,0,1-3.53,8.66l3,2.72a8.44,8.44,0,0,1,2.54-4.6c.34-.29.74-.51,1.08-.79a2.22,2.22,0,0,1,.43-.23c.59-.19.4-.57-.56-1.16a11.23,11.23,0,0,0-.7.91,12.31,12.31,0,0,1-1.11.92,19.86,19.86,0,0,1-10.67,3.94c-1.8.14-2.1,2.39-1.26,3.58.11-.78.06-1-.17-.61l-.18.16c.3.09-.71.18-.63.19-.85,0-1.81-1.49-2.29-2.05a14.21,14.21,0,0,0-5.1-4c-4-1.76-8.93-1.29-12.89.48A14.38,14.38,0,0,0,60.71,96c-1.16,4.81-.31,9.92-1.85,14.64a2.21,2.21,0,0,0,3.49,2.42c3.6-3,5.74-7.16,8.39-11,2.47-3.54,6.18-7.14,10.85-6.27L80.35,92,64.72,107.68l3.22,2.93a74.7,74.7,0,0,1,12.27-13c1.87-1.56-.17-4.91-2.37-3.64A52.33,52.33,0,0,1,64,99.49l1.84,3.82A73.21,73.21,0,0,1,82.46,90.66a2.24,2.24,0,0,0,.72-3.4c-.68-.9.07-2,.94-2.32,2.64-1,.72-5-1.9-4-3.68,1.41-4.62,6.11-2.38,9.12l.71-3.4A77,77,0,0,0,63,100c-1.42,1.44-.47,4.38,1.83,3.82a56.39,56.39,0,0,0,14.92-5.91l-2.37-3.65a78.86,78.86,0,0,0-13,13.87c-1.45,2,1.44,4.71,3.22,2.92L83.19,95.33a2.22,2.22,0,0,0-1.25-3.85c-5.15-1-9.83,2.14-13.06,5.88-3.4,3.94-5.33,9-9.38,12.39L63,112.17c1.67-5.15.56-10.69,2.15-15.8C66.59,91.71,71.32,89,76.07,89a9,9,0,0,1,6.44,2.37c1.65,1.65,2.9,3.74,5.22,4.55,4,1.38,8.47-3,5.81-6.71l-1.26,3.58a23.68,23.68,0,0,0,9.58-2.86c2.5-1.4,6.11-3.57,6.44-6.74.39-3.79-3.84-4.4-6.38-2.9A12,12,0,0,0,96.33,88c-.38,1.72,1.14,3.71,3,2.73a11.8,11.8,0,0,0,5.94-13.44c-.41-1.44-2.3-2.52-3.57-1.25a14.77,14.77,0,0,0-4.48,9.67c-.11,1.72,2.25,3.31,3.6,1.84a9.8,9.8,0,0,0,.77-12.73,2.23,2.23,0,0,0-3.47.17,17.94,17.94,0,0,0-4.39,11.54,2.21,2.21,0,0,0,4,1.42,6.79,6.79,0,0,0-.44-8.82c-.86-.9-2.76-1.16-3.46.17a40.56,40.56,0,0,0-3.62,9.27c-.56,2.21,2.49,4.31,3.85,2A10.86,10.86,0,0,0,95.51,83a2.22,2.22,0,0,0-4-.84L84.24,92.31l3.86,2a13.73,13.73,0,0,0,.39-11.19c-.54-1.41-2.36-1.49-3.4-.72a22.24,22.24,0,0,0-7.47,9.79c-.91,2.29,2.52,4.11,3.86,2A28.45,28.45,0,0,0,86,79.82,2.22,2.22,0,0,0,82.4,78a30.28,30.28,0,0,0-8.86,10.85c-1.12,2.28,2.46,4,3.86,2a44,44,0,0,0,6.11-12,2.2,2.2,0,0,0-3.86-2L72,86.84l3.85,2,3.27-6.34c1.2-2.34-2.39-3.8-3.86-2A37,37,0,0,0,68.6,92.94a2.21,2.21,0,0,0,3.48,2.42,23.78,23.78,0,0,0,7.16-8.75c1.09-2.22-2.59-4.12-3.86-2L67.83,97.19,71.3,97a8.45,8.45,0,0,0-6-2.46l2,2.36a44.58,44.58,0,0,1,4.44-16.4,11.62,11.62,0,0,1,4-4.78c2.25-1.33,4.5-.35,6.77.35a12.93,12.93,0,0,0,7.59.24,15.53,15.53,0,0,1,8-.51c5.13,1.19,10,4.47,13.85,8s7,8.18,7.43,13.67l4.13-1.37a16.72,16.72,0,0,0-30.2,0l3.32-1a18,18,0,0,0-22.25,2c-2,2,.83,5.32,2.85,3.33Z"/><path class="cls-3" d="M72.87,80.89a28.49,28.49,0,0,0,7.22,1.73,2.21,2.21,0,0,0,2.36-2,2.25,2.25,0,0,0-2-2.36,26.51,26.51,0,0,1-2.81-.45l.58.12a26.92,26.92,0,0,1-3.84-1.15,2.19,2.19,0,0,0-1.5,4.12Z"/><path class="cls-3" d="M90.86,80.34a1.51,1.51,0,0,0,.3-.1,1.46,1.46,0,0,0,.75-.4s.35-.37.38-.42.25-.47.27-.51.08-.38.13-.58l0-.58a1.55,1.55,0,0,0-.18-.55,2.56,2.56,0,0,0-.73-.87,2.52,2.52,0,0,0-1.18-.43h0a4.16,4.16,0,0,0-.61,0c-.11,0-.45.14-.56.18a1.92,1.92,0,0,0-.48.32l-.39.42c-.06.09-.22.42-.27.52a2,2,0,0,0-.13.59c0,.1,0,.52,0,.62a2.44,2.44,0,0,0,1,1.52,2.93,2.93,0,0,0,.58.31l.13.06a1.39,1.39,0,0,1,.26.1l-.51-.27a.71.71,0,0,1,.14.1L89.3,80l.12.14-.31-.47a1,1,0,0,1,.1.21L89,79.37a1.28,1.28,0,0,1,.06.33l0-.59a2.81,2.81,0,0,1-.06.65l.12-.58a3.43,3.43,0,0,1-.17.57,2.4,2.4,0,0,0,.09,1.7l.3.47a1.6,1.6,0,0,0,.67.51,1.13,1.13,0,0,0,.54.19,1.61,1.61,0,0,0,.87,0l.54-.18a2.2,2.2,0,0,0,.85-.72l.82-1.36A1.63,1.63,0,0,0,94,79.6a1.82,1.82,0,0,0,0-.87,1.71,1.71,0,0,0-.34-.78,1.64,1.64,0,0,0-.56-.61A2.2,2.2,0,0,0,91.42,77l-.54.18a2.11,2.11,0,0,0-.85.72l-.82,1.35,3.86,2A6.13,6.13,0,0,0,93.39,80a4.1,4.1,0,0,0,0-1.26,3.3,3.3,0,0,0-.25-.81,3.13,3.13,0,0,0-.22-.36,2.71,2.71,0,0,0-.24-.35,3.12,3.12,0,0,0-1.14-.79c-.11,0-.23-.07-.35-.13l.51.26a.24.24,0,0,1-.09-.06l.42.38s0,0,0,0l.31.47a.05.05,0,0,1,0,0l.18.54a.14.14,0,0,1,0-.07l0,.59v0l-.12.58h0l-.26.5,0,0-.38.42h0l-.47.31h0l-.54.18h0l-.58,0h0l-.58-.12.07,0-.5-.26,0,0-.42-.38,0,0-.31-.47h0l-.17-.53h0l.09-1.16h0l.26-.51h0l.37-.42h0l.47-.31h0l.53-.17h0a1.66,1.66,0,0,0-.77.33,1.75,1.75,0,0,0-.61.57,1.67,1.67,0,0,0-.33.79,1.87,1.87,0,0,0,0,.88l.18.54a2.25,2.25,0,0,0,.72.84l.51.26a2.18,2.18,0,0,0,1.16.1Z"/></g></svg>